<svg width="14" height="14" viewBox="0 0 14 14" fill="none" xmlns="http://www.w3.org/2000/svg">
<g clip-path="url(#clip0)">
<path d="M13.8399 12.345L9.60786 8.11308C9.50529 8.01052 9.36622 7.9529 9.22117 7.9529C9.08844 7.9529 8.9611 8.0016 8.86176 8.08836L8.26465 7.49126C9.69126 5.68663 9.58741 3.04317 7.90063 1.35636C7.90063 1.35636 7.90063 1.35636 7.9006 1.35636C6.09638 -0.447861 3.16067 -0.447916 1.35637 1.35636C-0.451985 3.16474 -0.452259 6.09194 1.35637 7.90059C3.01925 9.56345 5.66426 9.70452 7.49096 8.26429L8.08845 8.86178C7.90055 9.07657 7.90837 9.40305 8.11314 9.6078L12.3451 13.8398C12.5586 14.0532 12.905 14.0533 13.1185 13.8398L13.4791 13.4792C13.4791 13.4792 13.4792 13.4791 13.4792 13.4791C13.4792 13.4791 13.4792 13.4791 13.4792 13.479L13.8398 13.1184C14.0534 12.9049 14.0534 12.5586 13.8399 12.345ZM7.12726 7.1272C5.74627 8.5082 3.51094 8.50836 2.12976 7.1272C0.748788 5.74629 0.748542 3.51086 2.12976 2.12967C3.50753 0.7519 5.74941 0.751818 7.12726 2.12967C8.50823 3.51061 8.50851 5.74604 7.12726 7.1272Z" fill="white"/>
</g>
<defs>
<clipPath id="clip0">
<rect width="14" height="14" fill="white"/>
</clipPath>
</defs>
</svg>
